<svg xmlns="http://www.w3.org/2000/svg" width="21" height="22" viewBox="0 0 21 22">
    <g fill="#828282" fill-rule="nonzero">
        <path d="M15.947 10.81l-7.7-5.25a.351.351 0 0 0-.547.29v10.5a.35.35 0 0 0 .547.29l7.7-5.25a.35.35 0 0 0 0-.58zM8.4 15.688V6.513l6.729 4.587L8.4 15.687z"/>
        <path d="M10.5.6C4.71.6 0 5.31 0 11.1s4.71 10.5 10.5 10.5S21 16.89 21 11.1 16.29.6 10.5.6zm0 20.3c-5.404 0-9.8-4.396-9.8-9.8 0-5.404 4.396-9.8 9.8-9.8 5.404 0 9.8 4.396 9.8 9.8 0 5.404-4.396 9.8-9.8 9.8z"/>
    </g>
</svg>
