<svg id="Layer_1" data-name="Layer 1" xmlns="http://www.w3.org/2000/svg" viewBox="0 0 32 32"><defs><style>.cls-1{fill:none;}.cls-2{fill:#00707e;}.cls-3{fill:#fff;}.cls-4{fill:#cce7ef;}.cls-5{fill:#193961;}</style></defs><title>Profile</title><g id="Mockups-_-1440-Iteration-2" data-name="Mockups-@-1440-Iteration-2"><g id="_1" data-name="1"><g id="Group-13"><path id="Shape" class="cls-1" d="M14.88,32c-.14-.1-.34-.05-.5-.06a16.81,16.81,0,0,1-3.87-.88,16,16,0,0,1-2.45-1.14,16.92,16.92,0,0,1-2.25-1.55,16.58,16.58,0,0,1-1.76-1.7A14.54,14.54,0,0,1,2.18,24.1,15.48,15.48,0,0,1,.61,20.4a22.16,22.16,0,0,1-.48-2.26c0-.32,0-.65-.08-1a13.84,13.84,0,0,1,0-1.44A15.14,15.14,0,0,1,.24,13.3,15.46,15.46,0,0,1,1.76,8.67,16.34,16.34,0,0,1,3.58,5.9,18.74,18.74,0,0,1,5.2,4.18,16.38,16.38,0,0,1,7.74,2.27a16.22,16.22,0,0,1,5.2-2A14.72,14.72,0,0,1,14.78,0s.07,0,.08,0h2.2a.82.82,0,0,0,.35.08,11.86,11.86,0,0,1,1.18.14c.55.08,1.06.21,1.59.34A14.35,14.35,0,0,1,22,1.18c.37.16.72.31,1.07.48A16.45,16.45,0,0,1,25,2.75a15.73,15.73,0,0,1,1.7,1.35A15.89,15.89,0,0,1,31.46,12a15.5,15.5,0,0,1,.41,2.26c0,.3,0,.61.07.91a10.14,10.14,0,0,1,0,1.46,15.76,15.76,0,0,1-1.42,6,16.56,16.56,0,0,1-1.87,3.11A18,18,0,0,1,27,27.62,16.85,16.85,0,0,1,25.22,29a18.34,18.34,0,0,1-2.69,1.54A15.79,15.79,0,0,1,19,31.7a13.33,13.33,0,0,1-1.9.24.06.06,0,0,0-.06,0C16.35,32,15.62,32,14.88,32Zm4-8.77c0-.22,0-.45,0-.67s.12-.38.24-.54a10.44,10.44,0,0,0,1.68-3.2.45.45,0,0,1,.24-.28,1.32,1.32,0,0,0,.87-1.28c0-.57,0-1.15,0-1.71a1.59,1.59,0,0,0-.48-1.28v-.85a.15.15,0,0,1,.16-.11c.17,0,.16.18.16.31a.87.87,0,0,0,.16.68,1.59,1.59,0,0,1,.35,1.09v1.83a1.71,1.71,0,0,1-1,1.63.51.51,0,0,0-.19.22,10.58,10.58,0,0,1-1.71,3.17.58.58,0,0,0-.14.42c0,.51,0,1,0,1.53a1.63,1.63,0,0,0,1,1.57l1.83.91c1,.5,2,1,3,1.51a.34.34,0,0,0,.46-.05c.27-.24.56-.45.82-.69a15.29,15.29,0,0,0,3.33-4.29,15.57,15.57,0,0,0,1.77-6.83,15.36,15.36,0,0,0-.16-2.53,14.55,14.55,0,0,0-.78-3.12,15.45,15.45,0,0,0-8.13-8.73A15.15,15.15,0,0,0,17,.61a16.55,16.55,0,0,0-2.54.05,16,16,0,0,0-3,.6,15.7,15.7,0,0,0-7.5,5.17A14.46,14.46,0,0,0,2,9.55a17.21,17.21,0,0,0-1,3c-.14.6-.22,1.23-.3,1.85a10.76,10.76,0,0,0-.08,1.7c0,.37,0,.73,0,1.1A17.85,17.85,0,0,0,1,19.42a14.73,14.73,0,0,0,2,4.79,16,16,0,0,0,3.56,3.95.21.21,0,0,0,.28,0c.62-.36,1.24-.69,1.87-1,.13-.06.24-.08.32.08a.2.2,0,0,1-.11.21l-1.17.64c-.21.11-.42.22-.61.34s-.14.09,0,.17A18.64,18.64,0,0,0,9,29.71a17,17,0,0,0,3,1.19,16,16,0,0,0,2,.4,10.54,10.54,0,0,0,1.38.09,4.2,4.2,0,0,0,1.12,0,15.1,15.1,0,0,0,8.37-2.88l-.08-.05C23.23,27.65,21.6,26.85,20,26a1.83,1.83,0,0,1-1.05-1.55c0-.26,0-.51,0-.77A1.31,1.31,0,0,0,18.88,23.23Z"/><path id="Path" class="cls-2" d="M9,27.23c-.06-.16-.19-.14-.32-.08-.62.34-1.24.67-1.87,1a.2.2,0,0,1-.27,0A15.3,15.3,0,0,1,3,24.21a15,15,0,0,1-2-4.79,20,20,0,0,1-.35-2.19c0-.37-.05-.73-.05-1.1a13.82,13.82,0,0,1,.08-1.7A14.28,14.28,0,0,1,1,12.58a17.14,17.14,0,0,1,1-3A14.31,14.31,0,0,1,3.92,6.43a15.46,15.46,0,0,1,7.5-5.15,16.29,16.29,0,0,1,3-.61,15.41,15.41,0,0,1,16,10,14.55,14.55,0,0,1,.78,3.12,15.22,15.22,0,0,1,.16,2.53,15.58,15.58,0,0,1-1.77,6.83,16.72,16.72,0,0,1-3.33,4.29c-.26.24-.56.44-.82.68a.34.34,0,0,1-.46.05c-1-.51-2-1-3-1.5l-1.83-.91a1.65,1.65,0,0,1-1-1.57V22.67a.6.6,0,0,1,.14-.41,10.82,10.82,0,0,0,1.71-3.17.37.37,0,0,1,.19-.23,1.68,1.68,0,0,0,1-1.63c0-.61,0-1.21,0-1.82a1.57,1.57,0,0,0-.35-1.09.91.91,0,0,1-.16-.69c0-.13,0-.27-.18-.3V10.62c.18,0,.16-.17.15-.32a4,4,0,0,0-2.39-3.12A7.59,7.59,0,0,0,16,6.56a10.3,10.3,0,0,0-2,.18A4.58,4.58,0,0,0,11.52,7.9a4,4,0,0,0-1.25,2.9c0,1,0,2.08,0,3.12a.52.52,0,0,1-.09.29,1.53,1.53,0,0,0-.39,1v2.11a1.53,1.53,0,0,0,.59,1.22.45.45,0,0,1,.16.24,10.08,10.08,0,0,0,1.7,3.5.41.41,0,0,1,.08.24c0,.56,0,1.12,0,1.68a1.61,1.61,0,0,1-.85,1.41l-1.34.73c-.11.07-.21.15-.19.29l-.71.4C9.15,27.12,9.06,27.12,9,27.23Z"/><path id="Path-2" data-name="Path" class="cls-3" d="M21.6,10.56v2.7a.17.17,0,0,0-.16.12,2.37,2.37,0,0,0,0,.84,1.56,1.56,0,0,1,.48,1.28c0,.58,0,1.14,0,1.72a1.38,1.38,0,0,1-.86,1.28.32.32,0,0,0-.24.27A10.77,10.77,0,0,1,19.14,22c-.13.16-.28.32-.24.54-.15.11-.28.27-.44.39a4.1,4.1,0,0,1-2.49.86c-.31,0-.63,0-.93-.05a.22.22,0,0,0-.21-.11,1.53,1.53,0,0,1-.45-.1,3.3,3.3,0,0,1-1.48-1.07,9.2,9.2,0,0,1-2-3.81.43.43,0,0,0-.16-.28,1.29,1.29,0,0,1-.58-1.12V15.28a1.36,1.36,0,0,1,.4-1,.25.25,0,0,0,.1-.21c0-1,0-2,0-3a3.71,3.71,0,0,1,2.53-3.81,8.71,8.71,0,0,1,5.2-.18,3.74,3.74,0,0,1,3,3.24C21.41,10.5,21.49,10.56,21.6,10.56Z"/><path id="Path-3" data-name="Path" class="cls-3" d="M9,27.23c0-.09.13-.11.21-.16.23-.13.47-.25.71-.4.09.13.22.11.35,0l.81-.44.53-.29a2.11,2.11,0,0,0,1.06-1.54,12.28,12.28,0,0,0,1.07.95,3.84,3.84,0,0,0,1.73.65,3.69,3.69,0,0,0,2.4-.73c.35-.24.67-.55,1-.82l0,0A1.86,1.86,0,0,0,20,26.05l4.86,2.43.08.05a15.06,15.06,0,0,1-8.37,2.88H15.42a8.93,8.93,0,0,1-1.37-.1,15.8,15.8,0,0,1-2.05-.4,15.19,15.19,0,0,1-3-1.18c-.64-.34-1.26-.72-1.87-1.12-.11-.08,0-.13,0-.18l.61-.33c.39-.21.79-.42,1.17-.64A.21.21,0,0,0,9,27.23Z"/><path id="Path-4" data-name="Path" class="cls-4" d="M18.88,24.48c-.32.27-.64.58-1,.82a3.64,3.64,0,0,1-2.4.73,3.62,3.62,0,0,1-1.73-.65,8.76,8.76,0,0,1-1.07-.95v-1.6c.19.16.33.31.49.43a3.08,3.08,0,0,0,1.51.72c.24,0,.32,0,.32-.24.3,0,.62.05.93.05a4.19,4.19,0,0,0,2.49-.86,4,4,0,0,0,.43-.39c0,.23,0,.45,0,.68Z"/><path id="Path-5" data-name="Path" class="cls-5" d="M15,23.76c0,.22-.08.27-.32.24a3,3,0,0,1-1.51-.72c-.16-.13-.3-.27-.49-.43v1.6A2,2,0,0,1,11.63,26l-.53.29-.81.45a.25.25,0,0,1-.35,0c0-.15.06-.23.19-.29.45-.24.89-.48,1.34-.74a1.58,1.58,0,0,0,.85-1.4c0-.56,0-1.12,0-1.68a.41.41,0,0,0-.08-.24,10.4,10.4,0,0,1-1.7-3.51.41.41,0,0,0-.16-.24,1.66,1.66,0,0,1-.59-1.21V15.26a1.55,1.55,0,0,1,.39-1,.35.35,0,0,0,.09-.28c0-1,0-2.08,0-3.12a4,4,0,0,1,1.25-2.9,5.28,5.28,0,0,1,2.56-1.23,8.25,8.25,0,0,1,2-.18,7.77,7.77,0,0,1,3.3.63,4,4,0,0,1,2.38,3.12c0,.14,0,.27-.14.32a.21.21,0,0,1-.21-.18,3.73,3.73,0,0,0-3-3.23,8.63,8.63,0,0,0-5.2.17,3.72,3.72,0,0,0-2.53,3.81c0,1,0,2,0,3a.26.26,0,0,1-.1.21,1.33,1.33,0,0,0-.4,1v1.94a1.3,1.3,0,0,0,.58,1.12.45.45,0,0,1,.16.29,9.39,9.39,0,0,0,2,3.81,3.82,3.82,0,0,0,1.49,1.07,1.28,1.28,0,0,0,.44.09C14.9,23.65,15,23.66,15,23.76Z"/></g></g></g></svg>