<svg width="24" height="25" viewBox="0 0 24 25" fill="none" xmlns="http://www.w3.org/2000/svg">
<path d="M16.8281 25C16.4391 25 16.0453 25 15.6562 25C15.5953 24.9859 15.5391 24.9625 15.4781 24.9578C12.3984 24.6623 9.76406 22.5188 8.84063 19.5405C8.78906 19.3717 8.71406 19.3107 8.54062 19.2966C7.14844 19.2028 5.84531 18.8135 4.63125 18.1241C4.55625 18.0819 4.43438 18.0772 4.35 18.1006C3.51563 18.3257 2.68125 18.5556 1.84688 18.7854C1.25625 18.9496 0.665625 19.109 0.046875 19.2779C0.0703125 19.17 0.084375 19.0949 0.103125 19.0246C0.464062 17.716 0.820312 16.4074 1.19062 15.1035C1.24687 14.9019 1.2375 14.7471 1.13438 14.5595C0.707813 13.809 0.398438 13.007 0.229688 12.1628C0.135938 11.7078 0.075 11.2435 0 10.7838C0 10.3617 0 9.93959 0 9.51746C0.065625 9.08596 0.1125 8.64977 0.20625 8.22765C1.23281 3.67341 5.28281 0.666965 9.93281 1.02811C12.1359 1.19696 14.0297 2.08811 15.5953 3.63589C17.2125 5.23527 18.1172 7.18172 18.2906 9.4518C18.3094 9.68162 18.3891 9.77543 18.6094 9.85047C21.2203 10.7416 22.9219 12.5239 23.7094 15.1598C23.8547 15.6429 23.9062 16.1495 24 16.6466C24 17.0359 24 17.4299 24 17.8192C23.9859 17.8802 23.9672 17.9365 23.9578 17.9974C23.8547 19.0621 23.5453 20.0565 23.025 20.9898C22.9453 21.1305 22.9359 21.2572 22.9781 21.4072C23.2875 22.5001 23.5875 23.5976 23.8922 24.6951C23.9156 24.7748 23.9297 24.8546 23.9484 24.9484C23.8875 24.9343 23.8594 24.9296 23.8312 24.9249C22.7109 24.6154 21.5953 24.3105 20.4797 23.9916C20.2781 23.9353 20.1234 23.9681 19.9313 24.0479C19.3266 24.3105 18.7125 24.5591 18.0844 24.7561C17.6812 24.8968 17.25 24.9249 16.8281 25ZM2.04844 17.2751C2.87344 17.0453 3.65625 16.8343 4.43437 16.6091C4.63594 16.5481 4.79531 16.5716 4.97812 16.6889C6.69375 17.7723 8.55938 18.1475 10.5609 17.7911C14.8172 17.0266 17.6859 12.8335 16.7578 8.61225C16.0734 5.5073 14.1469 3.44359 11.0766 2.65563C8.02031 1.87236 5.3625 2.75882 3.27656 5.12739C1.0125 7.69765 0.792188 11.417 2.64844 14.3625C2.75625 14.5313 2.775 14.672 2.72344 14.8643C2.49375 15.6523 2.28281 16.4403 2.04844 17.2751ZM18.3094 11.2294C17.4375 15.7743 14.7563 18.4571 10.2422 19.306C10.9547 21.6793 13.4531 23.5319 16.0266 23.5882C17.3859 23.621 18.6328 23.2693 19.7672 22.5188C19.8984 22.4297 20.0156 22.4016 20.1797 22.4532C20.6203 22.5892 21.0656 22.7064 21.5062 22.8284C21.6422 22.8659 21.7828 22.8987 21.9469 22.9363C21.7828 22.35 21.6375 21.8012 21.4734 21.2525C21.4125 21.0508 21.4359 20.8913 21.5531 20.7084C23.1141 18.2835 22.9078 15.2677 21.0375 13.0727C20.2969 12.2144 19.3828 11.5999 18.3094 11.2294Z" fill="#055646"/>
<path d="M7.74396 8.01657C7.27521 8.01657 6.83459 8.01657 6.37053 8.01657C6.34709 7.52878 6.46896 7.08321 6.70803 6.67516C7.30803 5.65268 8.21271 5.13207 9.39396 5.23056C10.5612 5.32437 11.4002 5.96224 11.7987 7.06914C12.2018 8.18542 11.9533 9.19382 11.1237 10.0428C10.7674 10.4039 10.3737 10.7275 10.008 11.0793C9.93303 11.1497 9.88146 11.2763 9.87678 11.3795C9.85803 11.675 9.87209 11.9704 9.87209 12.28C9.40334 12.28 8.95334 12.28 8.46584 12.28C8.46584 12.0314 8.49865 11.7735 8.46115 11.5249C8.35334 10.8401 8.58771 10.3382 9.1549 9.93488C9.5299 9.67223 9.84865 9.32984 10.1721 9.00152C10.594 8.58409 10.6877 7.95091 10.4346 7.42091C10.1815 6.89091 9.61896 6.57197 9.03771 6.62357C8.46115 6.67516 7.96428 7.09259 7.80959 7.66011C7.78146 7.76799 7.7674 7.88524 7.74396 8.01657Z" fill="#055646"/>
<path d="M9.84824 15.0989C9.38418 15.0989 8.93887 15.0989 8.47949 15.0989C8.47949 14.6345 8.47949 14.1796 8.47949 13.7105C8.93418 13.7105 9.38418 13.7105 9.84824 13.7105C9.84824 14.1655 9.84824 14.6251 9.84824 15.0989Z" fill="#055646"/>
</svg>
